# Blender v2.78 (sub 0) OBJ File: ''
# www.blender.org
mtllib building1.mtl
o Cube
v -5.572080 -2.778328 -8.263663
v -2.464383 -2.778329 0.243009
v -5.572082 -2.778329 0.243009
v -5.572081 -2.778329 -3.712678
v -5.254543 5.728342 -3.727275
v -2.464384 -0.017170 0.243010
v -5.572082 -0.017170 0.243009
v -5.572082 -0.017170 -3.712678
v -2.464382 -2.778328 -8.263663
v 0.391162 -2.778329 0.243009
v -5.254544 5.728342 0.005547
v 0.391161 -0.017170 0.243010
v -2.959307 -2.778328 -8.263663
v 3.142392 -2.778329 0.243009
v -2.959307 -5.699068 -4.223699
v 3.142392 -0.017170 0.243010
v -2.464383 -5.699069 -3.712678
v -2.464383 -5.699069 0.243009
v -5.572082 -5.699069 0.243009
v -5.572081 -5.699069 -3.712678
v 0.391162 -5.699069 -3.712678
v 0.391162 -5.699069 0.243009
v 3.142392 -5.699069 -3.712678
v 3.142392 -5.699069 0.243009
v -2.464384 2.855586 0.243010
v -5.572081 -2.778328 -4.223699
v -2.464382 5.728342 -3.712678
v -5.572081 -0.017169 -4.223699
v -2.320665 5.728342 0.005548
v -2.959307 -5.699069 0.243009
v -2.959307 -5.699069 -3.712678
v -2.464383 -5.699068 -4.223699
v -5.572081 -5.699068 -4.223699
v 0.391162 -5.699068 -4.223699
v 3.142392 -5.699068 -4.223699
v -2.464382 -0.017169 -8.263661
v -5.572081 -0.017169 -8.263663
v 0.391162 -2.778328 -8.263663
v 0.391163 -0.017169 -8.263661
v 3.142392 -2.778328 -8.263663
v 3.142393 -0.017169 -8.263661
v -2.464382 -5.699067 -8.263663
v -5.572080 -5.699067 -8.263663
v 0.391162 -5.699067 -8.263663
v 3.142392 -5.699067 -8.263663
v -5.572082 2.855586 0.243009
v -5.572082 2.855586 -3.712678
v 0.391161 2.855586 0.243010
v -2.959308 -0.017170 0.243010
v 3.142392 2.855586 0.243010
v -5.572081 2.855586 -4.223699
v -2.959307 -2.778329 0.243009
v -2.464382 2.855586 -8.263661
v -5.572081 2.855586 -8.263663
v 0.391163 2.855586 -8.263661
v 3.142393 2.855586 -8.263661
v 0.391162 5.728342 -3.712678
v 0.375163 5.728342 0.005548
v 3.142393 5.728342 -3.712678
v 2.972512 5.728342 0.005548
v -2.464382 5.728342 -4.223699
v -5.254543 5.728342 -4.209713
v 0.391163 5.728342 -4.223699
v 3.142393 5.728342 -4.223699
v -2.320663 5.728342 -8.025329
v -5.254542 5.728342 -8.025331
v 0.375165 5.728342 -8.025329
v 2.972513 5.728342 -8.025329
v 5.725685 -2.778329 -3.712678
v 5.725685 -2.778329 0.243009
v 5.725686 -0.017170 -3.712678
v 5.725684 -0.017170 0.243010
v 5.725685 -5.699069 -3.712678
v 5.725685 -5.699069 0.243009
v 5.725685 -2.778328 -4.223699
v 5.725686 -0.017170 -4.223699
v 5.725685 -5.699068 -4.223699
v 5.725685 -2.778328 -8.263663
v 5.725686 -0.017169 -8.263661
v 5.725685 -5.699067 -8.263663
v 5.725686 2.855585 -3.712678
v 5.725684 2.855585 0.243010
v 5.725686 2.855586 -4.223699
v 5.725686 2.855586 -8.263661
v 5.411317 5.728342 -3.727275
v 5.411315 5.728341 0.005548
v 5.411317 5.728342 -4.209713
v 5.411317 5.728342 -8.025329
v -2.959306 -0.017169 -8.263661
v -2.959307 -5.699067 -8.263663
v -2.959308 2.855586 0.243010
v -2.959306 2.855586 -8.263661
v -2.959307 5.728342 -3.712678
v -2.787908 5.728342 0.005548
v -2.959306 5.728342 -4.223699
v -2.787906 5.728342 -8.025329
v -0.031882 -2.778329 0.243009
v -0.031883 -0.017170 0.243010
v -0.031882 -5.699069 0.243009
v -0.031882 -5.699069 -3.712678
v -0.031882 -5.699068 -4.223699
v -0.031881 -0.017169 -8.263661
v -0.031882 -2.778328 -8.263663
v -0.031882 -5.699067 -8.263663
v -0.031883 2.855586 0.243010
v -0.031881 2.855586 -8.263661
v -0.024219 5.728342 0.005548
v -0.031882 5.728342 -3.712678
v -0.031881 5.728342 -4.223699
v -0.024217 5.728342 -8.025329
v 2.666217 -0.017170 0.243010
v 2.666217 -2.778329 0.243009
v 2.666217 -5.699069 -3.712678
v 2.666217 -5.699069 0.243009
v 2.666217 -5.699068 -4.223699
v 2.666218 -0.017169 -8.263661
v 2.666217 -2.778328 -8.263663
v 2.666217 -5.699067 -8.263663
v 2.666217 2.855586 0.243010
v 2.666218 2.855586 -8.263661
v 2.522971 5.728342 0.005548
v 2.666218 5.728342 -3.712678
v 2.666218 5.728342 -4.223699
v 2.522972 5.728342 -8.025329
v -2.464383 -2.778329 0.800081
v -2.464384 -0.017170 0.800082
v -2.464383 -5.699069 0.800081
v -2.464384 2.855586 0.800082
v -2.464384 5.728342 0.837690
v -2.959307 -5.699069 0.800081
v -2.959308 -0.017170 0.800081
v -2.959307 -2.778329 0.800081
v -2.959308 2.855586 0.800081
v -2.959308 5.728342 0.837690
v 0.391162 -2.778329 0.824054
v 0.391161 -0.017170 0.824055
v 0.391162 -5.699069 0.824054
v 0.391161 2.855586 0.824055
v 0.391161 5.728342 0.837690
v -0.031882 -2.778329 0.824054
v -0.031883 -0.017170 0.824055
v -0.031882 -5.699069 0.824054
v -0.031883 2.855586 0.824055
v -0.031883 5.728342 0.837690
v 3.142392 -2.778329 0.852491
v 3.142392 -0.017170 0.852492
v 3.142392 -5.699069 0.852491
v 3.142392 2.855586 0.852492
v 3.142392 5.728342 0.837690
v 2.666217 -0.017170 0.852492
v 2.666217 -2.778329 0.852491
v 2.666217 -5.699069 0.852491
v 2.666217 2.855586 0.852492
v 2.666217 5.728342 0.837690
v 3.142392 5.018897 0.243010
v 0.391163 5.018897 -8.263661
v -2.464382 5.018897 -8.263661
v -5.572082 5.018897 -3.712678
v -5.572082 5.018897 0.243009
v 3.142393 5.018897 -8.263661
v -5.572081 5.018897 -8.263663
v -5.572081 5.018897 -4.223699
v -2.464384 5.018897 0.243010
v 0.391161 5.018897 0.243010
v 5.725684 5.018897 0.243010
v 5.725686 5.018897 -3.712678
v 5.725686 5.018897 -4.223699
v 5.725686 5.018897 -8.263661
v -2.959308 5.018897 0.243010
v -2.959306 5.018897 -8.263661
v -0.031883 5.018897 0.243010
v -0.031881 5.018897 -8.263661
v 2.666217 5.018897 0.243010
v 2.666218 5.018897 -8.263661
v -2.464383 5.016095 0.882275
v -2.997053 5.016095 0.882275
v 0.391161 5.016095 0.882275
v -0.039180 5.016095 0.882275
v 3.142392 5.016095 0.882275
v 2.666217 5.016095 0.882275
v -5.874427 5.747232 -3.698779
v -5.874427 5.747232 0.837690
v 5.364406 6.937763 -3.724029
v -2.299414 6.937764 -7.959047
v -2.299416 6.937763 0.001035
v -5.874426 5.747232 -4.237015
v -2.601224 5.747233 -8.490590
v -5.874426 5.747233 -8.490592
v 0.406395 5.747233 -8.490590
v 3.304145 5.747233 -8.490590
v 6.025012 5.747232 -3.698779
v 6.025011 5.747232 0.837690
v 6.025012 5.747232 -4.237014
v 6.025012 5.747233 -8.490590
v 5.364405 6.937763 0.001035
v -3.122507 5.747233 -8.490590
v -5.207430 6.937764 -7.959048
v -0.039178 5.747233 -8.490590
v 0.372647 6.937763 0.001035
v 2.802611 5.747233 -8.490590
v -5.207431 6.937763 0.001034
v 0.406395 5.000007 -8.490590
v -2.601224 5.000007 -8.490590
v -5.909838 5.018897 -3.712678
v -5.874427 5.016095 0.882275
v 3.304145 5.000007 -8.490590
v -5.874426 5.000007 -8.490592
v -5.909837 5.018897 -4.223699
v 0.372649 6.937764 -7.959047
v 2.947101 6.937763 0.001035
v 6.025011 5.016095 0.882275
v 6.025012 5.000006 -3.698779
v 6.025012 5.000006 -4.237014
v 6.025012 5.000006 -8.490590
v 2.947102 6.937764 -7.959047
v -3.122507 5.000007 -8.490590
v -5.207430 6.937763 -4.202214
v -0.039178 5.000007 -8.490590
v -5.207431 6.937763 -3.724029
v 2.802611 5.000007 -8.490590
v 5.364406 6.937763 -4.202214
v 5.364406 6.937764 -7.959047
v -2.762540 6.937763 0.001035
v -2.762538 6.937764 -7.959047
v -0.023214 6.937763 0.001035
v -0.023212 6.937764 -7.959047
v 2.501522 6.937763 0.001035
v 2.501523 6.937764 -7.959047
v -2.464519 6.937763 0.867536
v -2.959444 6.937763 0.867536
v 0.391025 6.937763 0.867536
v -0.032018 6.937763 0.867536
v 3.142257 6.937763 0.867536
v 2.666082 6.937763 0.867536
v -5.874563 6.956654 -3.693361
v -5.874563 6.956654 0.867536
v -5.874562 6.956654 -4.231596
v -2.601359 6.956655 -8.459770
v -5.874562 6.956655 -8.459772
v 0.406260 6.956655 -8.459770
v 3.304009 6.956655 -8.459770
v 6.024877 6.956654 -3.693361
v 6.024875 6.956654 0.867536
v 6.024877 6.956654 -4.231596
v 6.024877 6.956655 -8.459770
v -3.122642 6.956655 -8.459770
v -0.039314 6.956655 -8.459770
v 2.802476 6.956655 -8.459770
v 6.032852 -2.778329 -3.712678
v 6.032853 -0.017170 -3.712678
v 6.032852 -5.699069 -3.712678
v 6.032852 -2.778328 -4.223699
v 6.032853 -0.017170 -4.223699
v 6.032852 -5.699068 -4.223699
v 6.032853 2.855585 -3.712678
v 6.032853 2.855586 -4.223699
v -5.909838 -0.017170 -3.712678
v -5.909837 -2.778329 -3.712678
v -5.909837 -5.699069 -3.712678
v -5.909837 -2.778328 -4.223699
v -5.909837 -0.017169 -4.223699
v -5.909837 -5.699068 -4.223699
v -5.909838 2.855586 -3.712678
v -5.909837 2.855586 -4.223699
v 6.024951 6.290543 -8.476745
v 6.024951 6.290542 -4.234580
v 0.391100 6.271651 0.851098
v 2.666157 6.271651 0.851098
v 6.024950 6.290542 0.851098
v 6.024951 6.290542 -3.696345
v -2.959369 6.271651 0.851098
v -2.464444 6.271651 0.851098
v -3.122567 6.290543 -8.476745
v -2.601285 6.290543 -8.476745
v -0.031944 6.271651 0.851098
v -5.874488 6.290542 0.851098
v -5.874488 6.290542 -3.696345
v -5.874487 6.290542 -4.234581
v -0.039239 6.290543 -8.476745
v -5.874487 6.290543 -8.476747
v 0.406334 6.290543 -8.476745
v 3.304084 6.290543 -8.476745
v 2.802550 6.290543 -8.476745
v 3.142332 6.271651 0.851098
v 0.367755 6.247908 2.214094
v 0.367811 5.752085 2.201859
v -2.238154 5.752085 2.201859
v -2.689821 5.752085 2.201859
v -0.018258 5.752085 2.201859
v 2.444023 5.752085 2.201859
v 2.878579 5.752085 2.201859
v -2.689876 6.247908 2.214094
v 2.878523 6.247908 2.214094
v 2.443968 6.247908 2.214094
v -2.238209 6.247908 2.214094
v -0.018314 6.247908 2.214094
v -2.251695 -2.787632 0.243009
v -2.251696 -0.509320 0.243010
v -0.244570 -2.787632 0.243009
v -0.244570 -0.509320 0.243010
v -2.464383 -2.778329 0.243009
v -2.464384 -0.017170 0.243010
v -0.031883 -0.017170 0.243010
v -2.464383 -5.699069 0.243009
v -2.251696 -0.509320 0.243010
v -0.031882 -5.699069 0.243009
v -0.031882 -2.778329 0.243009
v -2.251695 -2.787632 0.243009
v -0.244570 -0.509320 0.243010
v -2.228170 -5.483918 0.243009
v -0.268095 -5.483918 0.243009
v -0.244570 -2.787632 0.243009
vn 0.0000 0.0000 1.0000
vn 0.0000 0.0000 -1.0000
vn -1.0000 0.0000 0.0000
vn 0.0000 -1.0000 -0.0000
vn 0.0000 1.0000 0.0000
vn 1.0000 0.0000 0.0000
vn 0.0287 -0.9996 0.0024
vn -1.0000 -0.0001 -0.0000
vn 0.0000 -0.0247 0.9997
vn 0.0000 -0.9966 0.0830
vn 0.9992 -0.0389 0.0000
vn -0.9992 -0.0388 0.0000
vn 0.0000 -0.0547 0.9985
vn -0.0230 -0.0033 0.9997
vn -0.0220 -0.0031 -0.9998
vn 0.0000 0.9993 0.0377
vn -0.0383 -0.9993 0.0019
vn 0.0000 0.0255 -0.9997
vn -0.9995 -0.0081 -0.0316
vn -0.0630 -0.9980 0.0000
vn 0.0283 0.9996 0.0000
vn 0.0000 0.0625 0.9980
vn 0.9920 -0.0811 0.0967
vn 0.9999 0.0091 -0.0109
vn -1.0000 -0.0016 -0.0060
vn 0.9889 0.0955 -0.1140
vn -0.9921 -0.0808 0.0964
vn 0.0000 -0.0138 0.9999
vn -0.9999 0.0085 -0.0102
vn 0.0000 -0.0269 0.9996
vn -0.0000 -0.0380 0.9993
vn -0.9988 0.0486 -0.0000
vn -0.9997 0.0243 0.0039
vn -0.9997 0.0240 -0.0042
vn 0.0002 0.0617 0.9981
vn -0.0002 0.0617 0.9981
vn -0.0286 0.9996 0.0000
vn 0.0040 -1.0000 -0.0003
vn 0.0000 -1.0000 -0.0044
vn 1.0000 0.0001 0.0000
vn 0.0000 -0.0037 -1.0000
vn 0.0035 1.0000 -0.0091
vn -0.0036 1.0000 -0.0091
vn 0.0002 -0.0247 0.9997
vn -0.0002 -0.0247 0.9997
vn 1.0000 0.0037 0.0000
vn 0.0000 0.9998 0.0174
vn -0.9810 -0.0049 0.1939
vn -0.9870 0.0039 -0.1608
vn 0.9999 -0.0003 0.0171
vn 0.0000 -0.9998 0.0174
vn 0.9818 -0.0046 0.1899
vn -1.0000 -0.0004 0.0100
vn 0.9865 0.0041 -0.1637
usemtl Material
s off
f 112//1 10//1 22//1 114//1
f 102//2 36//2 53//2 106//2
f 97//3 99//3 142//3 140//3
f 52//1 49//1 7//1 3//1
f 3//3 7//3 8//3 4//3
f 31//4 20//4 33//4 15//4
f 14//1 24//1 74//1 70//1
f 41//2 56//2 84//2 79//2
f 23//4 35//4 77//4 73//4
f 16//1 14//1 70//1 72//1
f 59//5 60//5 86//5 85//5
f 116//2 39//2 55//2 120//2
f 112//3 114//3 152//3 151//3
f 37//3 28//3 51//3 54//3
f 31//4 30//4 19//4 20//4
f 99//4 100//4 21//4 22//4
f 114//4 113//4 23//4 24//4
f 3//3 4//3 20//3 19//3
f 52//1 3//1 19//1 30//1
f 40//2 41//2 79//2 78//2
f 8//1 47//1 263//1 257//1
f 24//4 23//4 73//4 74//4
f 15//4 33//4 43//4 90//4
f 68//5 64//5 87//5 88//5
f 33//3 26//3 1//3 43//3
f 51//2 28//2 261//2 264//2
f 115//4 34//4 44//4 118//4
f 113//4 21//4 34//4 115//4
f 8//3 7//3 46//3 47//3
f 162//2 51//2 264//2 208//2
f 100//4 17//4 32//4 101//4
f 89//2 13//2 1//2 37//2
f 103//2 102//2 39//2 38//2
f 117//2 116//2 41//2 40//2
f 117//2 40//2 45//2 118//2
f 13//2 9//2 42//2 90//2
f 103//2 38//2 44//2 104//2
f 101//4 32//4 42//4 104//4
f 26//3 28//3 37//3 1//3
f 35//4 45//4 80//4 77//4
f 16//6 50//6 148//6 146//6
f 64//5 59//5 85//5 87//5
f 161//7 162//7 208//7 207//7
f 278//8 277//8 235//8 237//8
f 155//1 50//1 82//1 165//1
f 275//9 267//9 231//9 232//9
f 174//10 156//10 202//10 220//10
f 45//2 40//2 78//2 80//2
f 62//11 66//11 197//11 217//11
f 105//3 98//3 141//3 143//3
f 6//6 25//6 128//6 126//6
f 89//2 37//2 54//2 92//2
f 88//12 87//12 221//12 222//12
f 93//5 5//5 11//5 94//5
f 122//5 121//5 60//5 59//5
f 108//5 107//5 58//5 57//5
f 122//5 59//5 64//5 123//5
f 108//5 57//5 63//5 109//5
f 95//5 61//5 65//5 96//5
f 93//5 27//5 61//5 95//5
f 123//5 64//5 68//5 124//5
f 109//5 63//5 67//5 110//5
f 124//13 68//13 215//13 228//13
f 2//6 6//6 126//6 125//6
f 24//6 14//6 145//6 147//6
f 166//14 81//14 255//14 212//14
f 75//2 76//2 253//2 252//2
f 69//6 70//6 74//6 73//6
f 72//6 71//6 81//6 82//6
f 69//6 71//6 72//6 70//6
f 83//15 167//15 213//15 256//15
f 76//6 75//6 78//6 79//6
f 75//6 77//6 80//6 78//6
f 76//6 79//6 84//6 83//6
f 277//8 276//8 236//8 235//8
f 199//5 225//5 232//5 231//5
f 224//16 184//16 238//16 246//16
f 50//1 16//1 72//1 82//1
f 165//17 166//17 212//17 211//17
f 272//9 275//9 232//9 229//9
f 5//5 93//5 95//5 62//5
f 62//5 95//5 96//5 66//5
f 27//5 93//5 94//5 29//5
f 36//2 89//2 92//2 53//2
f 7//1 49//1 91//1 46//1
f 274//18 273//18 246//18 238//18
f 1//2 13//2 90//2 43//2
f 36//2 9//2 13//2 89//2
f 32//4 15//4 90//4 42//4
f 169//19 91//19 133//19 176//19
f 17//4 18//4 30//4 31//4
f 17//4 31//4 15//4 32//4
f 52//3 30//3 130//3 132//3
f 61//5 109//5 110//5 65//5
f 27//5 108//5 109//5 61//5
f 27//5 29//5 107//5 108//5
f 6//1 98//1 105//1 25//1
f 166//20 167//20 213//20 212//20
f 219//21 217//21 237//21 235//21
f 34//4 101//4 104//4 44//4
f 9//2 103//2 104//2 42//2
f 9//2 36//2 102//2 103//2
f 21//4 100//4 101//4 34//4
f 10//6 12//6 136//6 135//6
f 18//4 17//4 100//4 99//4
f 2//1 18//1 304//1 301//1
f 39//2 102//2 106//2 55//2
f 5//11 62//11 217//11 219//11
f 167//20 168//20 214//20 213//20
f 63//5 123//5 124//5 67//5
f 57//5 122//5 123//5 63//5
f 57//5 58//5 121//5 122//5
f 12//1 111//1 119//1 48//1
f 38//2 117//2 118//2 44//2
f 38//2 39//2 116//2 117//2
f 23//4 113//4 115//4 35//4
f 35//4 115//4 118//4 45//4
f 22//4 21//4 113//4 114//4
f 12//1 10//1 112//1 111//1
f 41//2 116//2 120//2 56//2
f 119//3 111//3 150//3 153//3
f 131//1 126//1 128//1 133//1
f 176//22 175//22 129//22 134//22
f 125//1 132//1 130//1 127//1
f 125//1 126//1 131//1 132//1
f 85//12 86//12 195//12 183//12
f 18//6 2//6 125//6 127//6
f 91//3 49//3 131//3 133//3
f 30//4 18//4 127//4 130//4
f 49//3 52//3 132//3 131//3
f 163//23 29//23 129//23 175//23
f 141//1 140//1 135//1 136//1
f 178//22 177//22 139//22 144//22
f 141//1 136//1 138//1 143//1
f 135//1 140//1 142//1 137//1
f 164//24 58//24 139//24 177//24
f 22//6 10//6 135//6 137//6
f 171//25 105//25 143//25 178//25
f 99//4 22//4 137//4 142//4
f 12//6 48//6 138//6 136//6
f 98//3 97//3 140//3 141//3
f 150//1 151//1 145//1 146//1
f 150//1 146//1 148//1 153//1
f 180//22 179//22 149//22 154//22
f 145//1 151//1 152//1 147//1
f 14//6 16//6 146//6 145//6
f 173//3 119//3 153//3 180//3
f 155//26 60//26 149//26 179//26
f 111//3 112//3 151//3 150//3
f 114//4 24//4 147//4 152//4
f 65//13 110//13 226//13 184//13
f 50//6 155//6 179//6 148//6
f 121//27 173//27 180//27 154//27
f 153//28 148//28 179//28 180//28
f 107//29 171//29 178//29 144//29
f 48//6 164//6 177//6 138//6
f 143//30 138//30 177//30 178//30
f 25//6 163//6 175//6 128//6
f 133//31 128//31 175//31 176//31
f 56//2 120//2 174//2 160//2
f 48//1 119//1 173//1 164//1
f 55//2 106//2 172//2 156//2
f 25//1 105//1 171//1 163//1
f 53//2 92//2 170//2 157//2
f 46//1 91//1 169//1 159//1
f 56//2 160//2 168//2 84//2
f 83//6 84//6 168//6 167//6
f 81//1 71//1 250//1 255//1
f 82//6 81//6 166//6 165//6
f 120//2 55//2 156//2 174//2
f 54//3 51//3 162//3 161//3
f 47//3 46//3 159//3 158//3
f 92//2 54//2 161//2 170//2
f 87//12 85//12 183//12 221//12
f 4//1 8//1 257//1 258//1
f 106//2 53//2 157//2 172//2
f 218//2 203//2 187//2 198//2
f 208//32 204//32 181//32 186//32
f 216//2 207//2 188//2 196//2
f 204//33 205//33 182//33 181//33
f 207//34 208//34 186//34 188//34
f 220//2 202//2 189//2 200//2
f 211//6 212//6 191//6 192//6
f 212//6 213//6 193//6 191//6
f 213//6 214//6 194//6 193//6
f 206//2 190//2 194//2 214//2
f 205//35 176//35 134//35 182//35
f 203//2 216//2 196//2 187//2
f 175//22 178//22 144//22 129//22
f 202//2 218//2 198//2 189//2
f 177//22 180//22 154//22 139//22
f 206//2 220//2 200//2 190//2
f 149//36 179//36 211//36 192//36
f 222//37 221//37 244//37 245//37
f 96//13 65//13 184//13 224//13
f 158//38 159//38 205//38 204//38
f 160//10 174//10 220//10 206//10
f 170//10 161//10 207//10 216//10
f 221//37 183//37 242//37 244//37
f 164//39 173//39 180//39 177//39
f 155//39 165//39 211//39 179//39
f 266//40 265//40 245//40 244//40
f 156//10 172//10 218//10 202//10
f 183//37 195//37 243//37 242//37
f 162//4 158//4 204//4 208//4
f 267//9 268//9 234//9 231//9
f 163//39 171//39 178//39 175//39
f 60//41 121//41 227//41 210//41
f 172//10 157//10 203//10 218//10
f 121//41 58//41 199//41 227//41
f 157//10 170//10 216//10 203//10
f 269//40 270//40 242//40 243//40
f 68//13 88//13 222//13 215//13
f 159//39 169//39 176//39 205//39
f 228//16 215//16 241//16 248//16
f 271//9 272//9 229//9 230//9
f 168//10 160//10 206//10 214//10
f 227//5 199//5 231//5 234//5
f 184//16 226//16 247//16 238//16
f 185//5 223//5 230//5 229//5
f 210//5 227//5 234//5 233//5
f 215//16 222//16 245//16 241//16
f 217//21 197//21 239//21 237//21
f 223//42 201//42 236//42 230//42
f 201//21 219//21 235//21 236//21
f 197//16 224//16 246//16 239//16
f 226//16 209//16 240//16 247//16
f 209//16 228//16 248//16 240//16
f 225//5 185//5 229//5 232//5
f 195//43 210//43 233//43 243//43
f 279//18 274//18 238//18 247//18
f 94//41 11//41 201//41 223//41
f 280//8 278//8 237//8 239//8
f 11//11 5//11 219//11 201//11
f 273//18 280//18 239//18 246//18
f 66//13 96//13 224//13 197//13
f 281//18 279//18 247//18 240//18
f 110//13 67//13 209//13 226//13
f 265//18 282//18 241//18 245//18
f 283//18 281//18 240//18 248//18
f 67//13 124//13 228//13 209//13
f 282//18 283//18 248//18 241//18
f 107//41 29//41 185//41 225//41
f 86//41 60//41 210//41 195//41
f 284//44 269//44 243//44 233//44
f 276//45 271//45 230//45 236//45
f 270//40 266//40 244//40 242//40
f 29//41 94//41 223//41 185//41
f 58//41 107//41 225//41 199//41
f 268//9 284//9 233//9 234//9
f 250//6 253//6 256//6 255//6
f 249//6 251//6 254//6 252//6
f 250//6 249//6 252//6 253//6
f 255//46 256//46 213//46 212//46
f 77//2 75//2 252//2 254//2
f 69//1 73//1 251//1 249//1
f 71//1 69//1 249//1 250//1
f 76//2 83//2 256//2 253//2
f 258//3 257//3 261//3 260//3
f 73//4 77//4 254//4 251//4
f 261//3 257//3 263//3 264//3
f 259//3 258//3 260//3 262//3
f 264//3 263//3 204//3 208//3
f 26//2 33//2 262//2 260//2
f 47//1 158//1 204//1 263//1
f 20//1 4//1 258//1 259//1
f 267//47 275//47 296//47 285//47
f 28//2 26//2 260//2 261//2
f 33//4 20//4 259//4 262//4
f 191//40 193//40 266//40 270//40
f 182//45 134//45 271//45 276//45
f 149//44 192//44 269//44 284//44
f 190//18 200//18 283//18 282//18
f 200//18 189//18 281//18 283//18
f 194//18 190//18 282//18 265//18
f 189//18 198//18 279//18 281//18
f 196//18 188//18 280//18 273//18
f 188//8 186//8 278//8 280//8
f 198//18 187//18 274//18 279//18
f 271//48 134//48 288//48 292//48
f 192//40 191//40 270//40 269//40
f 139//9 154//9 268//9 267//9
f 193//40 194//40 265//40 266//40
f 187//18 196//18 273//18 274//18
f 129//9 144//9 275//9 272//9
f 181//8 182//8 276//8 277//8
f 272//47 271//47 292//47 295//47
f 186//8 181//8 277//8 278//8
f 290//9 291//9 293//9 294//9
f 288//9 287//9 295//9 292//9
f 289//9 286//9 285//9 296//9
f 268//49 154//49 290//49 294//49
f 139//50 267//50 285//50 286//50
f 154//51 149//51 291//51 290//51
f 149//52 284//52 293//52 291//52
f 144//51 139//51 286//51 289//51
f 284//47 268//47 294//47 293//47
f 134//51 129//51 287//51 288//51
f 275//53 144//53 289//53 296//53
f 129//54 272//54 295//54 287//54
f 6//1 2//1 301//1 302//1
f 99//1 97//1 307//1 306//1
f 298//1 300//1 309//1 305//1
f 307//1 303//1 309//1 312//1
f 303//1 302//1 305//1 309//1
f 302//1 301//1 308//1 305//1
f 306//1 307//1 312//1 311//1
f 304//1 306//1 311//1 310//1
f 301//1 304//1 310//1 308//1
f 300//1 299//1 312//1 309//1
f 18//1 99//1 306//1 304//1
f 97//1 98//1 303//1 307//1
f 297//1 298//1 305//1 308//1
f 98//1 6//1 302//1 303//1
l 134 94
